<?xml version="1.0" standalone="no"?><!DOCTYPE svg PUBLIC "-//W3C//DTD SVG 1.1//EN" "http://www.w3.org/Graphics/SVG/1.1/DTD/svg11.dtd"><svg t="1752059773686" class="icon" viewBox="0 0 1024 1024" version="1.1" xmlns="http://www.w3.org/2000/svg" p-id="5482" xmlns:xlink="http://www.w3.org/1999/xlink" width="200" height="200"><path d="M494.0288 721.5616a219.6736 219.6736 0 0 0 223.5136-215.04V215.1168a223.6672 223.6672 0 0 0-446.976 0v291.3536a219.648 219.648 0 0 0 223.4624 215.0912zM497.8176 145.92l103.5264 186.5216h-74.5984v215.6288h-54.0672v-215.6288h-75.7248z" fill="#ffffff" p-id="5484"></path><path d="M494.1568 721.5616z" fill="#ffffff" p-id="5485"></path><path d="M792.704 447.2064a28.4928 28.4928 0 0 0-29.824 27.3152v47.2576a238.6944 238.6944 0 0 1-77.1328 174.7712 274.2528 274.2528 0 0 1-373.1712 0 238.9248 238.9248 0 0 1-77.1584-174.7712v-56.0128a28.16 28.16 0 0 0-56.32 0v56.0128a293.5296 293.5296 0 0 0 94.3104 214.656 325.7344 325.7344 0 0 0 200.576 87.68v124.7744H331.52a35.9936 35.9936 0 0 0-16.4352 0 38.0928 38.0928 0 0 0-27.8784 45.5424 36.992 36.992 0 0 0 44.3136 28.6464h336.256a36.096 36.096 0 0 0 16.4608 0 38.0672 38.0672 0 0 0 27.8784-45.5424 37.0176 37.0176 0 0 0-44.3392-28.6464h-121.8048v-127.104a324.6848 324.6848 0 0 0 178.7904-85.504A293.2736 293.2736 0 0 0 819.2 521.7024v-47.1808a28.5696 28.5696 0 0 0-26.496-27.3152z" fill="#ffffff" p-id="5486"></path></svg>